<mxfile host="app.diagrams.net" modified="2023-11-15T17:34:47.212Z" agent="Mozilla/5.0 (Windows NT 10.0; Win64; x64) AppleWebKit/537.36 (KHTML, like Gecko) Chrome/118.0.0.0 Safari/537.36" etag="C8F4By-EI2CwFp1esDRz" version="22.1.1" type="github">
  <diagram name="Page-1" id="EyQY99APFU2GJJl7ZLDq">
    <mxGraphModel dx="1120" dy="470" grid="1" gridSize="10" guides="1" tooltips="1" connect="1" arrows="1" fold="1" page="1" pageScale="1" pageWidth="850" pageHeight="1100" math="0" shadow="0">
      <root>
        <mxCell id="0" />
        <mxCell id="1" parent="0" />
        <mxCell id="dvYZQ-POn6XQoZ-Clor1-1" value="start" style="ellipse;whiteSpace=wrap;html=1;" vertex="1" parent="1">
          <mxGeometry x="260" y="250" width="120" height="80" as="geometry" />
        </mxCell>
        <mxCell id="dvYZQ-POn6XQoZ-Clor1-3" value="" style="endArrow=classic;html=1;rounded=0;" edge="1" parent="1">
          <mxGeometry width="50" height="50" relative="1" as="geometry">
            <mxPoint x="320" y="340" as="sourcePoint" />
            <mxPoint x="320" y="400" as="targetPoint" />
          </mxGeometry>
        </mxCell>
        <mxCell id="dvYZQ-POn6XQoZ-Clor1-4" value="" style="shape=parallelogram;perimeter=parallelogramPerimeter;whiteSpace=wrap;html=1;fixedSize=1;" vertex="1" parent="1">
          <mxGeometry x="260" y="400" width="120" height="60" as="geometry" />
        </mxCell>
        <mxCell id="dvYZQ-POn6XQoZ-Clor1-5" value="" style="rounded=0;whiteSpace=wrap;html=1;" vertex="1" parent="1">
          <mxGeometry x="270" y="520" width="120" height="60" as="geometry" />
        </mxCell>
        <mxCell id="dvYZQ-POn6XQoZ-Clor1-6" value="" style="shape=parallelogram;perimeter=parallelogramPerimeter;whiteSpace=wrap;html=1;fixedSize=1;" vertex="1" parent="1">
          <mxGeometry x="260" y="640" width="120" height="60" as="geometry" />
        </mxCell>
        <mxCell id="dvYZQ-POn6XQoZ-Clor1-7" value="" style="ellipse;whiteSpace=wrap;html=1;" vertex="1" parent="1">
          <mxGeometry x="260" y="760" width="120" height="80" as="geometry" />
        </mxCell>
      </root>
    </mxGraphModel>
  </diagram>
</mxfile>
